<svg width="111" height="136" viewBox="0 0 111 136" fill="none" xmlns="http://www.w3.org/2000/svg">
<mask id="mask0_11_35" style="mask-type:luminance" maskUnits="userSpaceOnUse" x="0" y="0" width="111" height="136">
<path d="M110.793 0.975037H0.690918V135.385H110.793V0.975037Z" fill="white"/>
</mask>
<g mask="url(#mask0_11_35)">
<mask id="mask1_11_35" style="mask-type:luminance" maskUnits="userSpaceOnUse" x="0" y="2" width="111" height="133">
<path d="M45.6567 45.1753C45.373 44.1576 45.8978 43.1399 48.3092 44.3838C47.9972 45.9952 47.4723 46.5464 46.9475 46.5464C46.3801 46.5464 45.8411 45.8679 45.6567 45.1753ZM1.32922 30.588C1.8115 32.8072 2.37889 36.4681 3.30091 38.8146C4.22292 41.5568 7.7833 43.8325 10.4359 45.7549C16.5353 49.9812 21.8262 53.8118 31.4577 49.8823C36.3798 52.2429 32.0535 55.4939 33.1741 59.6355C34.6067 65.1199 33.3017 60.1585 39.5147 56.8085C44.8198 57.0629 53.7987 72.6539 56.3662 77.5163C58.6499 81.9264 92.9062 129.265 96.4099 134.085L110.439 122.678C107.502 123.102 79.0193 93.9554 77.3029 91.2132C74.7071 87.425 70.7921 83.9195 68.8346 80.4423C65.0189 76.6682 61.416 70.2933 57.7989 64.7241C54.9193 60.0878 47.5291 53.5009 48.4085 48.9776C50.8909 47.9599 53.8697 49.0907 56.579 50.2074C59.2741 51.3241 61.7139 52.4407 63.104 51.4513C60.9763 47.5076 59.2173 42.6593 55.8555 40.1857C51.6001 37.076 44.9758 39.2245 41.5715 35.0546C41.8126 31.7894 44.8198 30.4183 45.1035 26.8846C45.4297 22.2766 48.7206 19.8736 43.0751 11.6611C38.692 5.28624 29.103 2.99636 23.9398 2.41682C22.9752 2.30374 21.9965 2.26134 21.0319 2.2472C5.27259 2.2472 -1.12475 17.6261 1.32922 30.5738" fill="white"/>
</mask>
<g mask="url(#mask1_11_35)">
<path d="M99.2894 -31.1539L-40.7003 15.4211L10.0103 167.5L150 120.925L99.2894 -31.1539Z" fill="url(#paint0_linear_11_35)"/>
</g>
</g>
<defs>
<linearGradient id="paint0_linear_11_35" x1="19.5698" y1="-52.2288" x2="69.645" y2="99.0089" gradientUnits="userSpaceOnUse">
<stop stop-color="#231F20"/>
<stop offset="0.12" stop-color="#231F20"/>
<stop offset="0.14" stop-color="#232021"/>
<stop offset="0.15" stop-color="#272527"/>
<stop offset="0.16" stop-color="#2B2A2D"/>
<stop offset="0.17" stop-color="#2F2F32"/>
<stop offset="0.18" stop-color="#333438"/>
<stop offset="0.19" stop-color="#35383C"/>
<stop offset="0.2" stop-color="#393C41"/>
<stop offset="0.21" stop-color="#3C4046"/>
<stop offset="0.22" stop-color="#3D4249"/>
<stop offset="0.23" stop-color="#40474E"/>
<stop offset="0.24" stop-color="#414950"/>
<stop offset="0.25" stop-color="#444C55"/>
<stop offset="0.26" stop-color="#454E57"/>
<stop offset="0.27" stop-color="#47515B"/>
<stop offset="0.28" stop-color="#48555F"/>
<stop offset="0.29" stop-color="#495662"/>
<stop offset="0.3" stop-color="#4B5966"/>
<stop offset="0.31" stop-color="#4B5B68"/>
<stop offset="0.32" stop-color="#4C5E6B"/>
<stop offset="0.33" stop-color="#4D5F6E"/>
<stop offset="0.34" stop-color="#4D6171"/>
<stop offset="0.35" stop-color="#4E6474"/>
<stop offset="0.36" stop-color="#4E6576"/>
<stop offset="0.37" stop-color="#4F6779"/>
<stop offset="0.38" stop-color="#4F697C"/>
<stop offset="0.39" stop-color="#4F6A7E"/>
<stop offset="0.4" stop-color="#4E6C81"/>
<stop offset="0.41" stop-color="#4E6E84"/>
<stop offset="0.42" stop-color="#4D6F86"/>
<stop offset="0.43" stop-color="#4D7189"/>
<stop offset="0.44" stop-color="#4D728B"/>
<stop offset="0.45" stop-color="#4C748E"/>
<stop offset="0.46" stop-color="#4C7590"/>
<stop offset="0.47" stop-color="#4B7793"/>
<stop offset="0.48" stop-color="#4A7996"/>
<stop offset="0.49" stop-color="#497A98"/>
<stop offset="0.5" stop-color="#487B9A"/>
<stop offset="0.51" stop-color="#467D9C"/>
<stop offset="0.52" stop-color="#457EA0"/>
<stop offset="0.53" stop-color="#4280A3"/>
<stop offset="0.54" stop-color="#4281A4"/>
<stop offset="0.55" stop-color="#4082A6"/>
<stop offset="0.56" stop-color="#3D84A9"/>
<stop offset="0.57" stop-color="#3A85AC"/>
<stop offset="0.58" stop-color="#3786AE"/>
<stop offset="0.59" stop-color="#3488B1"/>
<stop offset="0.6" stop-color="#3089B3"/>
<stop offset="0.61" stop-color="#2B8AB5"/>
<stop offset="0.62" stop-color="#258BB8"/>
<stop offset="0.63" stop-color="#1F8CBA"/>
<stop offset="0.64" stop-color="#188CBB"/>
<stop offset="0.65" stop-color="#048EBE"/>
<stop offset="0.66" stop-color="#008FC1"/>
<stop offset="0.67" stop-color="#0090C2"/>
<stop offset="0.68" stop-color="#0090C4"/>
<stop offset="0.69" stop-color="#0091C6"/>
<stop offset="0.7" stop-color="#0092C8"/>
<stop offset="0.71" stop-color="#0093CB"/>
<stop offset="0.72" stop-color="#0094CD"/>
<stop offset="0.73" stop-color="#0094CF"/>
<stop offset="0.74" stop-color="#0095D0"/>
<stop offset="0.75" stop-color="#0096D3"/>
<stop offset="0.76" stop-color="#0096D4"/>
<stop offset="0.77" stop-color="#0097D6"/>
<stop offset="0.78" stop-color="#0098D9"/>
<stop offset="0.79" stop-color="#009ADB"/>
<stop offset="0.8" stop-color="#009BDC"/>
<stop offset="0.81" stop-color="#009CDD"/>
<stop offset="0.82" stop-color="#009EDF"/>
<stop offset="0.83" stop-color="#009EE0"/>
<stop offset="0.84" stop-color="#00A0E1"/>
<stop offset="0.85" stop-color="#00A2E3"/>
<stop offset="0.86" stop-color="#00A2E4"/>
<stop offset="0.87" stop-color="#00A3E4"/>
<stop offset="0.88" stop-color="#00A4E6"/>
<stop offset="0.89" stop-color="#00A5E7"/>
<stop offset="0.9" stop-color="#00A6E8"/>
<stop offset="0.91" stop-color="#00A8EA"/>
<stop offset="0.92" stop-color="#00A9EA"/>
<stop offset="0.93" stop-color="#00ABEC"/>
<stop offset="0.94" stop-color="#00ABED"/>
<stop offset="0.95" stop-color="#00AEEF"/>
<stop offset="0.97" stop-color="#00AEEF"/>
<stop offset="1" stop-color="#00AEEF"/>
</linearGradient>
</defs>
</svg>
