<svg width="170" height="180" viewBox="0 0 170 180" fill="none" xmlns="http://www.w3.org/2000/svg">
<path fill-rule="evenodd" clip-rule="evenodd" d="M86.0307 164.164C126.074 164.164 155.919 130.282 152.458 88.7248C148.997 47.1678 113.507 13.2861 73.4488 13.2861C33.391 13.2861 3.54616 47.182 7.02144 88.739C10.4825 130.296 45.9871 164.178 86.0307 164.178" fill="#DCDCDE"/>
<path fill-rule="evenodd" clip-rule="evenodd" d="M17.2062 101.291L34.3272 120.698L40.6678 129.688L48.9092 133.434L65.2501 137.731L81.8179 134.777L91.9175 126.889L99.6907 117.066C99.6907 117.066 104.372 99.9198 103.379 96.9656C102.386 93.9972 94.1303 86.7035 92.5274 86.3219C90.9104 85.9402 85.2223 78.4487 85.2223 78.4487C85.2223 78.4487 86.7684 70.6603 88.428 69.3598C90.1018 68.0594 100.712 69.2468 104.726 69.5153C108.741 69.798 118.4 81.9824 118.4 81.9824L120.599 101.206L117.649 120.557L108.457 141.123C108.457 141.123 98.3857 149.703 87.2365 151.696C77.3781 153.449 70.3424 152.573 68.8104 152.997C65.5338 153.902 43.4339 144.643 40.6111 143.639C37.7883 142.608 26.4263 126.96 26.4263 126.96L22.6531 115.482L17.2204 101.263L17.2062 101.291Z" fill="#FFCA02"/>
<path fill-rule="evenodd" clip-rule="evenodd" d="M126.103 47.8322L97.8609 32.9762L88.8535 31.8596L71.8885 35.3085L60.3421 44.4963L53.2213 55.6912L51.4057 68.0877C51.4057 68.0877 55.9448 85.2759 58.2711 87.3255C60.6116 89.4033 71.4062 91.5942 73.0091 91.1137C74.5978 90.6472 83.2789 94.294 83.2789 94.294C83.2789 94.294 85.8464 101.8 85.052 103.765C84.2577 105.729 74.4702 109.998 70.853 111.765C67.2359 113.518 52.7532 107.807 52.7532 107.807L37.2635 90.5907L32.1144 76.6535L34.7386 55.2389C34.7386 55.2389 36.1712 39.1391 44.8523 31.8454C52.5121 25.414 61.0372 24.3114 62.1578 23.1806C64.5408 20.7494 82.3569 22.0357 85.2932 21.4986C88.2578 20.9756 103.279 24.891 103.279 24.891L114.939 32.2836L126.103 47.8463V47.8322Z" fill="#A6CC35"/>
<path fill-rule="evenodd" clip-rule="evenodd" d="M68.1011 39.6904L60.1577 47.606L53.8596 62.8295L52.5262 75.7206C52.5262 75.7206 54.1859 85.6434 56.1717 86.9721C58.1576 88.3008 63.1223 96.2164 65.4486 96.2164C67.7749 96.2164 78.0305 94.2375 78.683 92.5837C79.3497 90.9299 84.3144 82.6609 84.3144 82.6609L83.3214 74.3919L94.2437 67.1124L105.833 69.7556C105.833 69.7556 120.727 79.3392 120.727 95.863C120.727 112.387 119.734 138.523 91.6053 149.11C97.563 149.435 112.131 144.813 112.131 144.813L121.72 136.219C121.72 136.219 130.996 124.981 132.656 119.016C134.316 113.051 135.975 102.478 135.975 100.499C135.975 98.5204 136.628 77.3603 134.982 74.0527C133.323 70.7309 124.642 52.2423 123.323 49.599C122.003 46.9558 94.7685 35.3509 94.7685 35.3509L70.087 38.6727L68.1011 39.6762V39.6904Z" fill="#EB1923"/>
<path fill-rule="evenodd" clip-rule="evenodd" d="M48.5687 27.4494L33.6747 48.6096L31.0222 60.5113V73.7276L34.3556 90.3928L43.6041 103.482L49.2354 107.129L59.179 113.405C59.179 113.405 68.1154 115.384 70.7537 113.73C73.3921 112.076 81.3498 106.789 81.3498 105.136C81.3498 103.482 87.3074 96.2023 87.3074 96.2023C87.3074 96.2023 95.5913 92.2445 97.2509 93.559C98.8964 94.8736 100.216 105.461 100.882 109.433C101.549 113.405 91.9458 125.631 91.9458 125.631L80.6973 135.554L58.5265 137.858L27.0788 125.631C27.0788 125.631 20.114 101.164 18.4686 98.1953C16.809 95.2128 17.8161 76.6959 18.1424 73.7134C18.4686 70.7451 25.4192 49.5849 25.4192 49.5849L36.0152 36.0294L48.5971 27.4353L48.5687 27.4494Z" fill="#00A6E3"/>
<path d="M7.06402 110.083C13.6458 121.278 18.809 132.741 26.7525 143.046C32.1285 150.029 38.5117 156.432 45.9871 161.153C51.6043 164.489 57.5902 166.934 63.9308 168.489C64.6968 168.743 65.4912 168.984 66.2855 169.224C63.8174 169.054 61.3918 168.602 59.0371 167.853C52.0724 165.605 45.6466 162.326 39.7458 157.987C34.2846 154.071 29.3058 149.633 24.795 144.671C18.7381 138 12.9649 131.031 8.73783 123.087C6.82288 119.85 4.42565 116.444 2.8937 112.995C1.27663 110.662 0.0283696 107.991 0 105.136C0 105.136 0.922011 99.2979 3.37598 101.715C3.37598 101.715 4.97886 102.266 6.19875 107.496C6.19875 107.496 6.85125 109.73 7.06402 110.083ZM83.8179 5.38463C86.0875 5.79455 88.4138 6.261 90.6975 6.47303C93.6622 7.43421 96.6977 8.18337 99.5772 9.42725C106.244 12.8055 112.57 16.7351 118.571 21.1876C123.223 24.679 127.635 28.5661 131.507 32.9197C135.607 37.6125 139.366 42.8001 142.117 48.4117C143.082 50.3623 144.032 52.313 145.011 54.2636C144.855 53.5427 144.685 52.8218 144.5 52.1151C142.5 46.7296 139.408 41.6976 135.975 37.1178C131.408 30.6298 125.067 22.3184 119.209 16.9895C113.592 11.8868 109.464 8.98907 102.556 5.82282C99.0098 4.19729 94.5558 2.14771 90.7401 1.38442C89.662 1.15825 88.2719 0.621124 86.9244 0.536314C86.9244 0.536314 82.3001 -0.495544 81.676 1.96395C81.676 1.96395 80.5412 4.8051 83.8605 5.4129M86.4705 166.906C87.9315 166.326 89.5628 166.27 91.0522 165.733C96.953 164.263 103.577 163.103 108.968 160.305C117.436 155.88 125.124 150.382 132.046 143.795C139.578 136.699 146.004 128.699 151.323 119.822C155.182 113.037 158.316 105.927 160.728 98.5063C161.097 97.5875 161.437 96.6687 161.778 95.75C161.324 98.6477 160.501 101.517 159.48 104.259C156.387 112.373 152.458 120.076 147.706 127.342C143.578 133.745 138.997 139.95 133.791 145.548C126.94 152.926 119.493 159.329 110.5 163.923C109.393 164.489 107.663 165.634 106.514 166.1C102.357 168.008 99.3786 169.832 93.3926 171.231C93.3926 171.231 85.7754 174.115 83.7186 170.722C83.7186 170.722 83.7328 167.966 86.4421 166.906" fill="#B0B3B5"/>
<path d="M57.3775 47.3092C56.881 47.8746 56.4129 48.4682 55.9732 49.0619C56.8668 46.9841 58.1718 45.0758 59.7321 43.4503C60.8811 42.2488 62.1719 41.118 63.5337 40.1427C66.5834 37.9659 69.9026 36.3686 73.5056 35.3509C74.7396 34.9834 76.0163 34.7148 77.2787 34.5028C83.5626 33.4003 90.1869 33.6689 96.414 35.0117C104.258 36.6655 111.365 39.9165 117.734 44.7931C117.975 44.9769 118.216 45.1748 118.443 45.3727C121.294 47.5212 124.159 49.7969 126.188 52.7794C128.131 54.7725 129.805 57.3309 130.259 60.1155C130.103 60.2851 130.06 60.7233 129.961 60.9495C129.933 61.0202 129.904 61.0767 129.848 61.1474C129.805 61.1898 129.762 61.2181 129.706 61.2463C129.635 61.2605 129.578 61.2605 129.507 61.2463C129.408 61.2039 129.323 61.1474 129.238 61.0908C128.372 60.2851 127.677 59.2957 126.996 58.3486C126.287 57.3733 125.564 56.3839 124.684 55.5499C122.06 52.4402 119.081 49.698 115.762 47.3374C109.705 42.9697 102.967 39.5066 95.8041 37.3722C88.4422 35.1813 81.2505 34.5876 73.7183 36.1849C72.8956 36.3686 72.1013 36.6089 71.3069 36.8775C68.6686 37.8246 66.2146 39.1108 63.945 40.7505C61.4201 42.6022 59.2215 44.8073 57.3917 47.3516M44.753 100.952C45.3629 101.489 45.9871 101.984 46.6538 102.464C44.3984 101.475 42.3841 100.118 40.5969 98.4215C39.2777 97.1635 38.0862 95.8065 37.0223 94.3365C33.8307 89.8839 31.8023 84.9367 30.937 79.5229C29.7455 72.7523 30.0292 65.6282 31.476 58.9282C33.2491 50.4754 36.767 42.8284 42.0153 35.987C42.2139 35.7184 42.4409 35.4781 42.6395 35.2237C44.9658 32.1564 47.4197 29.0608 50.6397 26.884C52.7958 24.792 55.5476 22.9969 58.5548 22.5022C58.7534 22.6859 59.2073 22.7283 59.4626 22.8273C59.5336 22.8555 59.5903 22.8838 59.6612 22.9404C59.718 22.9828 59.7463 23.0393 59.7747 23.11C59.7747 23.1806 59.7747 23.2513 59.7605 23.322C59.718 23.4209 59.6612 23.5199 59.5903 23.6047C58.725 24.5376 57.6612 25.2868 56.6257 26.0359C55.576 26.7992 54.5121 27.5625 53.6185 28.5237C50.2567 31.3507 47.3063 34.5452 44.753 38.1214C40.0295 44.6518 36.2989 51.8889 34.0009 59.6208C31.6321 67.5364 30.9938 75.2824 32.7243 83.3959C32.9087 84.2582 33.1924 85.1487 33.4619 85.9968C34.4832 88.8097 35.8875 91.4953 37.6464 93.9266C39.6465 96.6546 42.0153 99.001 44.7672 100.98M98.4282 146.99C97.4495 147.357 96.4424 147.654 95.4211 147.894C98.2438 146.664 100.896 145.152 103.365 143.3C105.748 141.548 107.847 139.512 109.677 137.194C113.351 132.515 116.017 127.271 117.861 121.631C118.017 121.151 118.173 120.656 118.301 120.161C120.017 113.786 120.783 107.426 120.344 100.81C119.961 95.0291 118.627 89.1206 115.89 83.9755C113.393 79.2826 109.606 74.6181 105.194 71.6639C103.634 70.7168 101.974 70.0383 100.187 69.6567C98.3999 69.275 96.6126 69.1902 94.7969 69.4164C94.343 69.4588 93.9033 69.5295 93.4636 69.6143C90.4989 70.7309 87.9173 72.5402 85.1938 74.1375C84.9385 74.0385 84.4562 74.194 84.1867 74.2223C84.1158 74.2223 84.0307 74.2223 83.9598 74.2223C83.8888 74.2223 83.8321 74.1799 83.7895 74.1234C83.7328 74.0668 83.7186 73.9961 83.7186 73.9113C83.7186 73.7841 83.747 73.671 83.7895 73.5438C84.3995 72.1303 85.5059 70.943 86.6832 69.9535C87.9882 68.8792 89.4493 67.9887 90.9387 67.183C92.0167 66.7307 93.1941 66.3349 94.343 66.137C96.2012 65.8119 98.0594 65.7837 99.9318 66.0664C101.804 66.3491 103.563 66.9286 105.237 67.805C111.251 70.9571 115.918 76.4274 118.883 82.4772C121.62 88.0888 122.684 94.5202 122.67 100.74C122.67 107.482 121.464 114.083 119.351 120.486C118.301 123.681 116.925 126.833 115.322 129.801C113.904 132.572 112.216 135.272 110.23 137.675C106.996 141.618 103.109 144.926 98.3999 146.975" fill="#211E1E"/>
<path d="M35.0506 169.606C36.9088 170.185 44.9516 173.507 48.4836 174.44C56.6682 177.083 65.4203 178.709 74.6687 179.26C81.5058 179.67 88.6408 179.401 95.8324 178.454C103.634 177.493 111.521 175.486 119.237 172.39C121.89 171.33 124.415 170.044 126.826 168.517C125.961 168.885 125.096 169.238 124.216 169.577C117.549 172.673 110.599 174.977 103.393 176.475C93.8324 178.214 84.4279 178.058 75.6759 176.843C59.1648 174.539 48.0864 166.538 39.377 164.319C38.0294 164.149 32.4832 160.658 31.1782 160.404C31.1782 160.404 25.9156 157.817 25.6461 162.185C25.6461 162.185 25.5043 166.665 35.0648 169.606M164.671 116.797C166.671 108.782 169.168 101.771 169.111 93.5025C169.083 87.3396 168.402 81.2333 167.083 75.2117C165.707 68.6389 163.338 62.4478 159.962 56.6383C158.813 54.6735 157.437 52.8784 155.848 51.2387C156.245 51.8889 156.628 52.5391 156.997 53.1893C160.373 58.1507 162.955 63.4938 164.742 69.2185C166.955 77.0493 167.395 85.3324 166.771 93.4035C165.863 105.334 159.437 116.331 157.238 128.049C157.167 129.278 156.912 130.508 156.756 131.724C156.756 131.724 154.018 138.763 156.685 140.784C156.685 140.784 158.884 143.3 160.657 136.869C160.657 136.869 162.047 130.126 162.345 128.133M15.0643 34.0646C15.1352 33.9657 15.2061 33.8809 15.2912 33.7961C18.6956 29.8524 21.2488 26.8982 25.2631 23.5623C28.4547 20.8766 31.8732 18.5444 35.5329 16.5513C39.4763 14.4876 43.6892 12.7349 48.0439 11.7595C49.5475 11.4203 51.0653 11.081 52.583 10.7277C52.0582 10.7135 51.5333 10.7135 51.0085 10.7277C46.9375 11.2224 40.6678 12.4239 36.9088 14.0353C33.6463 15.3357 30.5399 16.2545 23.7879 20.8342C19.3197 23.8874 14.9791 27.3081 11.6315 31.5627C9.75914 33.8526 8.31229 36.3828 7.26262 39.1391C7.26262 39.1391 3.29088 46.249 7.19169 49.4718C7.19169 49.4718 9.12083 49.8676 10.9223 46.772C10.9223 46.772 12.1847 44.468 12.8514 39.5773C12.8514 39.5773 14.5252 34.6442 15.0501 34.0364" fill="#B0B3B5"/>
</svg>
